HIERARCHY
ROOT Hips
{
 OFFSET 0.000000 0.000000 0.000000
 CHANNELS 6 Xposition Yposition Zposition Yrotation Xrotation Zrotation
 JOINT Chest
 {
  OFFSET 0.000000 9.585900 0.002600
  CHANNELS 3 Yrotation Xrotation Zrotation
  JOINT Chest2
  {
   OFFSET 0.000000 9.601200 -0.005300
   CHANNELS 3 Yrotation Xrotation Zrotation
   JOINT Chest3
   {
    OFFSET 0.000000 9.561800 0.000000
    CHANNELS 3 Yrotation Xrotation Zrotation
    JOINT Chest4
    {
     OFFSET 0.000000 9.552100 0.000000
     CHANNELS 3 Yrotation Xrotation Zrotation
     JOINT Neck
     {
      OFFSET 0.000000 14.453000 0.000000
      CHANNELS 3 Yrotation Xrotation Zrotation
      JOINT Head
      {
       OFFSET 0.000000 8.936500 -0.011300
       CHANNELS 3 Yrotation Xrotation Zrotation
       End Site
       {
        OFFSET 0.000000 17.073600 -0.006000
       }
      }
     }
     JOINT RightCollar
     {
      OFFSET -2.921100 9.558500 0.000000
      CHANNELS 3 Yrotation Xrotation Zrotation
      JOINT RightShoulder
      {
       OFFSET -13.519700 0.000000 0.000000
       CHANNELS 3 Yrotation Xrotation Zrotation
       JOINT RightElbow
       {
        OFFSET 0.000000 -29.696600 0.000000
        CHANNELS 3 Yrotation Xrotation Zrotation
        JOINT RightWrist
        {
         OFFSET 0.000000 -24.004700 0.000000
         CHANNELS 3 Yrotation Xrotation Zrotation
         End Site
         {
          OFFSET 0.000000 -17.728500 0.000000
         }
        }
       }
      }
     }
     JOINT LeftCollar
     {
      OFFSET 2.921100 9.558500 0.000000
      CHANNELS 3 Yrotation Xrotation Zrotation
      JOINT LeftShoulder
      {
       OFFSET 13.519700 0.000000 0.000000
       CHANNELS 3 Yrotation Xrotation Zrotation
       JOINT LeftElbow
       {
        OFFSET 0.000000 -29.696600 0.000000
        CHANNELS 3 Yrotation Xrotation Zrotation
        JOINT LeftWrist
        {
         OFFSET 0.000000 -24.004700 0.000000
         CHANNELS 3 Yrotation Xrotation Zrotation
         End Site
         {
          OFFSET 0.000000 -17.728500 0.000000
         }
        }
       }
      }
     }
    }
   }
  }
 }
 JOINT RightHip
 {
  OFFSET -7.771700 -0.012900 -0.001300
  CHANNELS 3 Yrotation Xrotation Zrotation
  JOINT RightKnee
  {
   OFFSET 0.000000 -40.869800 0.001200
   CHANNELS 3 Yrotation Xrotation Zrotation
   JOINT RightAnkle
   {
    OFFSET 0.000000 -39.717900 0.002100
    CHANNELS 3 Yrotation Xrotation Zrotation
    JOINT RightToe
    {
     OFFSET 0.000000 -4.965400 11.033500
     CHANNELS 3 Yrotation Xrotation Zrotation
     End Site
     {
      OFFSET 0.000000 -1.423100 5.872300
     }
    }
   }
  }
 }
 JOINT LeftHip
 {
  OFFSET 7.771700 -0.012900 -0.001300
  CHANNELS 3 Yrotation Xrotation Zrotation
  JOINT LeftKnee
  {
   OFFSET 0.000000 -40.869800 0.001200
   CHANNELS 3 Yrotation Xrotation Zrotation
   JOINT LeftAnkle
   {
    OFFSET 0.000000 -39.717900 0.002100
    CHANNELS 3 Yrotation Xrotation Zrotation
    JOINT LeftToe
    {
     OFFSET 0.000000 -4.965400 11.033500
     CHANNELS 3 Yrotation Xrotation Zrotation
     End Site
     {
      OFFSET 0.000000 -1.423100 5.872300
     }
    }
   }
  }
 }
}
MOTION
Frames: 11
Frame Time: 0.008333
-100.599283 46.524416 -29.677687 173.258934 -33.401675 -3.097624 0.534572 19.498949 1.687438 0.027934 2.362014 0.206991 0.050536 3.886836 0.341528 0.404728 16.851843 1.545313 -0.413898 16.763024 -2.258614 0.028953 -4.640080 -4.076818 -0.398967 0.328915 -1.848689 6.297223 -8.873965 -16.117411 -49.820736 -57.028457 98.940423 -0.674745 3.794630 -12.924484 0.596566 0.000670 3.620318 -5.270544 -4.373547 11.412934 75.540323 -68.301648 -113.638084 -1.701745 10.860583 5.656317 -4.533024 -53.331200 -1.128829 -153.758806 78.240173 -144.275165 -9.993729 -14.251534 -6.613230 0.011983 -0.117824 -0.005025 -0.312188 -55.976011 14.377932 -116.130309 82.767144 -120.024705 6.530246 -5.564065 4.246014 0.007937 0.093485 0.006069
-100.597051 46.524660 -29.676758 173.256842 -33.399559 -3.096495 0.538378 19.500231 1.687942 0.028932 2.362361 0.207606 0.052226 3.887175 0.342402 0.406360 16.849967 1.547075 -0.419747 16.760032 -2.252218 0.004272 -4.652040 -4.049421 -0.395837 0.318293 -1.843856 6.277313 -8.860268 -16.119126 -49.822103 -57.031697 98.954422 -0.674059 3.792559 -12.919992 0.590070 -0.003481 3.620168 -5.267882 -4.365110 11.414775 75.566255 -68.301498 -113.671334 -1.707949 10.862375 5.661290 -4.538620 -53.333310 -1.121891 -153.772211 78.242904 -144.285229 -10.013183 -14.251021 -6.613549 0.024763 -0.118685 -0.004325 -0.310880 -55.978675 14.378381 -116.121229 82.770191 -120.012907 6.530489 -5.558426 4.238504 0.005687 0.091231 0.009877
-100.594211 46.524914 -29.675452 173.250232 -33.395625 -3.095600 0.542420 19.502009 1.690565 0.036069 2.365942 0.208966 0.057078 3.888784 0.343911 0.409028 16.847619 1.551571 -0.432614 16.750311 -2.247182 -0.057685 -4.708472 -3.944179 -0.403866 0.307341 -1.845892 6.272149 -8.859070 -16.119009 -49.820484 -57.029781 98.954063 -0.672504 3.791030 -12.913825 0.578296 -0.015426 3.619093 -5.262979 -4.353930 11.416672 75.587160 -68.303924 -113.711343 -1.696486 10.870778 5.686742 -4.551520 -53.339162 -1.102445 -153.762118 78.243267 -144.278636 -10.016899 -14.242665 -6.616951 0.023721 -0.123544 -0.002068 -0.317061 -55.983892 14.390633 -116.120393 82.770030 -120.013254 6.521197 -5.551592 4.236881 0.013161 0.087041 0.008813
-100.590686 46.525549 -29.674174 173.234592 -33.392940 -3.093054 0.572492 19.500252 1.702716 0.033479 2.363026 0.208762 0.059713 3.888335 0.344480 0.440655 16.851142 1.560217 -0.472453 16.740144 -2.221207 -0.101112 -4.748329 -3.879228 -0.441373 0.299451 -1.835432 6.268374 -8.856499 -16.124787 -49.807818 -57.025616 98.946229 -0.674610 3.787735 -12.902030 0.529911 -0.024839 3.628193 -5.256265 -4.338980 11.420141 75.608342 -68.312054 -113.748208 -1.678992 10.875431 5.708837 -4.558581 -53.341536 -1.084325 -153.719691 78.242165 -144.232585 -10.010973 -14.238077 -6.628652 0.031269 -0.124187 0.001715 -0.319854 -55.983241 14.410583 -116.087986 82.770004 -119.980860 6.509245 -5.552598 4.234493 0.008785 0.090446 0.006066
-100.587363 46.526875 -29.673518 173.236622 -33.393359 -3.098184 0.586677 19.495778 1.710255 0.035516 2.361671 0.209101 0.063090 3.886165 0.345081 0.456157 16.846582 1.565033 -0.496905 16.735656 -2.189248 -0.162807 -4.791422 -3.786441 -0.461384 0.313129 -1.827559 6.278293 -8.867360 -16.151128 -49.815427 -57.009377 98.944526 -0.684923 3.779016 -12.905462 0.511922 -0.030368 3.648746 -5.274055 -4.320168 11.415460 75.601346 -68.313071 -113.744426 -1.671375 10.882102 5.725037 -4.571875 -53.332403 -1.071728 -153.686672 78.247260 -144.199160 -9.997071 -14.243875 -6.634928 0.024206 -0.116728 0.003182 -0.330218 -55.979895 14.422002 -116.054918 82.772836 -119.949668 6.507299 -5.552794 4.238690 0.004405 0.093728 0.000863
-100.584740 46.528954 -29.673532 173.236476 -33.397432 -3.097207 0.605045 19.492356 1.711096 0.038324 2.358936 0.209391 0.067802 3.881790 0.345567 0.477434 16.837819 1.570406 -0.524537 16.688514 -2.098385 -0.243322 -4.792578 -3.705339 -0.482100 0.342159 -1.814894 6.268487 -8.881517 -16.170143 -49.779184 -57.003096 98.919674 -0.697479 3.760416 -12.901884 0.485782 -0.022646 3.669102 -5.292100 -4.309783 11.417684 75.572901 -68.316399 -113.719771 -1.662253 10.877083 5.734796 -4.572532 -53.324512 -1.067977 -153.659254 78.248803 -144.169732 -10.014980 -14.243049 -6.624795 0.034215 -0.118305 -0.003899 -0.328922 -55.973900 14.420765 -116.031087 82.770861 -119.927541 6.523816 -5.554254 4.242095 -0.024256 0.094265 -0.003296
-100.580567 46.531010 -29.672403 173.225807 -33.395070 -3.100154 0.627668 19.485243 1.721158 0.057828 2.351101 0.206827 0.073880 3.875329 0.345590 0.470217 16.841800 1.578308 -0.538941 16.656287 -2.037005 -0.350323 -4.825084 -3.551198 -0.501635 0.358683 -1.807344 6.269597 -8.888987 -16.179689 -49.766427 -56.997380 98.911164 -0.709822 3.792667 -12.879487 0.483702 -0.028759 3.686657 -5.315707 -4.305838 11.432903 75.541087 -68.296234 -113.690942 -1.652728 10.880931 5.746190 -4.580738 -53.322992 -1.044568 -153.595306 78.249556 -144.105918 -10.006564 -14.238531 -6.624370 0.023869 -0.113819 -0.001054 -0.337674 -55.971557 14.437445 -115.972785 82.766156 -119.866058 6.540811 -5.562286 4.238018 0.011845 0.100448 -0.004791
-100.577697 46.532945 -29.670435 173.218000 -33.385096 -3.097087 0.647599 19.470065 1.723977 0.062879 2.349497 0.207066 0.104890 3.863625 0.340861 0.454975 16.842393 1.587284 -0.556096 16.623906 -1.959846 -0.491764 -4.861331 -3.351258 -0.525386 0.380020 -1.798032 6.271173 -8.899388 -16.189138 -49.767095 -56.987190 98.909664 -0.713091 3.815717 -12.858579 0.478854 -0.039360 3.708071 -5.337003 -4.296417 11.440229 75.502032 -68.282764 -113.660315 -1.650724 10.907029 5.756734 -4.580319 -53.331486 -1.036803 -153.558292 78.250183 -144.067897 -9.989418 -14.231719 -6.629711 0.028655 -0.114226 0.000682 -0.339849 -55.978370 14.444608 -115.947269 82.767014 -119.841692 6.532620 -5.566564 4.243765 0.026421 0.105751 -0.012210
-100.576692 46.534653 -29.667376 173.214073 -33.365613 -3.085337 0.686225 19.443438 1.722443 0.046286 2.350018 0.209144 0.143439 3.855285 0.333428 0.478222 16.822096 1.595756 -0.617626 16.607599 -1.849602 -0.667947 -4.905650 -3.102576 -0.588127 0.433665 -1.784926 6.271159 -8.931536 -16.204104 -49.763043 -56.971991 98.903415 -0.723239 3.822224 -12.840104 0.427530 -0.042079 3.748618 -5.351408 -4.287950 11.451944 75.428697 -68.267912 -113.606613 -1.631408 10.927661 5.768839 -4.569255 -53.351494 -1.045049 -153.531355 78.250831 -144.044034 -9.972288 -14.226918 -6.632467 0.029584 -0.111790 0.003283 -0.333982 -55.989437 14.429122 -115.900146 82.773253 -119.794054 6.524305 -5.578828 4.244580 0.003408 0.118486 -0.018037
-100.574206 46.537928 -29.665134 173.214366 -33.354345 -3.083550 0.790748 19.428693 1.738730 0.057099 2.340945 0.207752 0.098490 3.853598 0.343463 0.590676 16.787097 1.587012 -0.764545 16.599674 -1.674579 -0.875005 -4.959376 -2.808382 -0.743446 0.501987 -1.733923 6.271837 -8.972080 -16.215160 -49.726807 -56.991980 98.863292 -0.745883 3.824946 -12.782861 0.287669 -0.045070 3.838460 -5.364345 -4.270737 11.454424 75.317671 -68.261335 -113.523823 -1.618483 10.945704 5.767830 -4.572920 -53.362538 -1.035566 -153.483180 78.250592 -143.999632 -9.971447 -14.217625 -6.630911 0.027920 -0.115252 0.004630 -0.334589 -55.996601 14.424622 -115.869607 82.784686 -119.756975 6.514884 -5.575268 4.239867 -0.002766 0.114559 -0.014770
-100.572691 46.541537 -29.662293 173.219936 -33.339253 -3.078564 0.836695 19.413175 1.740608 0.048188 2.337320 0.207709 0.120084 3.845488 0.340450 0.650409 16.767410 1.581696 -0.881356 16.573370 -1.501456 -1.109855 -5.019706 -2.475869 -0.834266 0.583570 -1.778708 6.242327 -9.038733 -16.157972 -49.743718 -57.008419 98.863344 -0.733062 3.869775 -12.684517 0.201094 -0.074111 3.913246 -5.386713 -4.231479 11.440857 75.249413 -68.256001 -113.472035 -1.609244 11.019210 5.754536 -4.562227 -53.377416 -1.043778 -153.441427 78.248970 -143.953761 -9.980349 -14.212487 -6.628112 0.030705 -0.118017 0.005142 -0.331076 -56.006830 14.409320 -115.830998 82.793000 -119.718747 6.523809 -5.576342 4.238802 0.000537 0.114669 -0.013214
